<?xml version="1.0" encoding="UTF-8"?>
<svg id="Layer_1" xmlns="http://www.w3.org/2000/svg" version="1.1" viewBox="0 0 228 120">
  <!-- Generator: Adobe Illustrator 29.5.1, SVG Export Plug-In . SVG Version: 2.1.0 Build 141)  -->
  <defs>
    <style>
      .st0 {
        fill: #ea4b71;
        fill-rule: evenodd;
      }
    </style>
  </defs>
  <path class="st0" d="M204,48c-11.2,0-20.6-7.7-23.2-18h-27.5c-5.9,0-10.9,4.2-11.8,10l-1,5.9c-.9,5.6-3.8,10.5-7.8,14,4,3.5,6.9,8.4,7.8,14l1,5.9c1,5.8,6,10,11.8,10h3.5c2.7-10.3,12.1-18,23.2-18s24,10.8,24,24-10.7,24-24,24-20.6-7.7-23.2-18h-3.5c-11.7,0-21.7-8.5-23.7-20l-1-5.9c-1-5.8-6-10-11.8-10h-9.5c-2.7,10.3-12.1,18-23.2,18s-20.6-7.7-23.2-18h-13.5c-2.7,10.3-12.1,18-23.2,18S0,73.2,0,60s10.8-24,24-24,20.6,7.7,23.2,18h13.5c2.7-10.3,12.1-18,23.2-18s20.6,7.7,23.2,18h9.5c5.9,0,10.9-4.2,11.8-10l1-5.9c1.9-11.6,11.9-20,23.7-20h27.5C183.4,7.7,192.8,0,204,0s24,10.8,24,24-10.7,24-24,24ZM204,36c6.6,0,12-5.4,12-12s-5.4-12-12-12-12,5.4-12,12,5.4,12,12,12ZM24,72c6.6,0,12-5.4,12-12s-5.4-12-12-12-12,5.4-12,12,5.4,12,12,12ZM96,60c0,6.6-5.4,12-12,12s-12-5.4-12-12,5.4-12,12-12,12,5.4,12,12ZM192,96c0,6.6-5.4,12-12,12s-12-5.4-12-12,5.4-12,12-12,12,5.4,12,12Z"/>
</svg>